<?xml version="1.0" encoding="UTF-8"?>
<svg xmlns="http://www.w3.org/2000/svg" viewBox="0 0 50 50">
  <path fill='hsl(265, 30%, 50%)' d="m34.07,46.71c0-1,.04-4.3.04-8.41v.02c.02-.19.02-.38.02-.58,0-1.99-.79-3.8-2.09-5.14,6.84-.76,14.03-3.35,14.03-15.14v-.19c0-3.11-1.2-5.95-3.16-8.07l-.02.08c.41-1.18.64-2.45.64-3.76,0-1.61-.34-3.16-.92-4.46,0,0-2.57-.82-8.41,3.16l.2.06c-2.51-.71-5.15-1.09-7.89-1.09s-5.37.38-7.69,1.03C12.94.26,10.37,1.08,10.37,1.08c-.6,1.34-.92,2.82-.92,4.39,0,1.34.24,2.62.66,3.73-1.97,2.11-3.17,4.96-3.17,8.07v.18c0,11.77,7.16,14.42,13.99,15.18-1.08,1.07-1.79,2.5-1.94,4.09h.02c-.96.55-2.06.86-3.24.86-2.47,0-4.62-1.37-5.76-3.4v-.02c-.97-1.67-2.66-2.86-4.68-3.14,0,0-3-.04-.22,1.88h.02c1.58,1.02,2.8,2.58,3.38,4.48,0,0,1.8,5.97,10.35,4.13,0,2.56.04,4.49.04,5.22,0,.43-.16.89-.52,1.19,2.59.71,5.31,1.09,8.12,1.09s5.52-.38,8.1-1.09c-.38-.3-.55-.77-.55-1.21h.03Z"/>
</svg>