<?xml version="1.0" encoding="UTF-8"?>
<svg xmlns="http://www.w3.org/2000/svg" viewBox="0 0 50 50">
  <path fill='hsl(220, 40%, 50%)' d="m40.48,13.49c-1.37-.54-2.93.18-3.43,1.56-.54,1.38.18,2.92,1.56,3.43,1.7.64,3.13,1.9,4.02,3.5,2.18,3.98.82,9.17-3.02,11.55l-8.35,5.17c-1.83,1.14-3.93,1.46-5.92.92-2.01-.52-3.66-1.85-4.71-3.7-2.17-3.96-.82-9.13,3.18-11.64l1.1-.78c1.18-.86,1.46-2.52.6-3.75-.86-1.16-2.52-1.46-3.75-.6l-.92.68c-6.24,3.89-8.44,12.26-4.89,18.68,1.72,3.14,4.6,5.38,8.03,6.29,1.06.28,2.18.42,3.25.42,2.38,0,4.74-.64,6.84-1.96l8.35-5.17c6.24-3.89,8.41-12.26,4.89-18.68-1.54-2.74-3.96-4.87-6.84-5.92,0,0,0,0,0,0Z"/>
  <path fill='hsl(220, 40%, 50%)' d="m11.38,31.55c-1.7-.64-3.13-1.9-4.02-3.5-2.18-3.98-.82-9.17,3.02-11.55l8.41-5.21c1.83-1.14,3.93-1.46,5.92-.92,2.01.52,3.66,1.85,4.71,3.7,2.17,3.96.82,9.13-3.18,11.64l-1.1.78c-1.18.86-1.46,2.52-.6,3.75.86,1.18,2.52,1.46,3.75.6l.92-.68c6.24-3.89,8.44-12.26,4.89-18.68-1.76-3.14-4.64-5.38-8.07-6.29-3.43-.9-7.02-.32-10.09,1.56l-8.35,5.16C1.35,15.8-.85,24.16,2.7,30.59c1.54,2.74,3.96,4.87,6.84,5.92.32.14.6.18.92.18,1.08,0,2.1-.68,2.5-1.74l.02.02c.5-1.38-.22-2.92-1.6-3.43h0Z"/>
</svg>