<?xml version="1.0" encoding="UTF-8"?>
<svg xmlns="http://www.w3.org/2000/svg" viewBox="0 0 50 50">
  <path fill='hsl(0, 30%, 50%)' d="m21.25,1h7.5c1.25,0,2.25,1,2.25,2.25v15.75h8.22c1.67,0,2.5,2.02,1.32,3.2l-14.26,14.27c-.7.7-1.86.7-2.56,0l-14.28-14.27c-1.18-1.18-.35-3.2,1.32-3.2h8.23V3.25c0-1.25,1-2.25,2.25-2.25Zm27.75,35.25v10.5c0,1.25-1,2.25-2.25,2.25H3.25c-1.25,0-2.25-1-2.25-2.25v-10.5c0-1.25,1-2.25,2.25-2.25h13.75l4.59,4.59c1.88,1.88,4.92,1.88,6.81,0l4.59-4.59h13.75c1.25,0,2.25,1,2.25,2.25Zm-11.62,8.25c0-1.03-.84-1.88-1.88-1.88s-1.88.84-1.88,1.88.84,1.88,1.88,1.88,1.88-.84,1.88-1.88Zm6,0c0-1.03-.84-1.88-1.88-1.88s-1.88.84-1.88,1.88.84,1.88,1.88,1.88,1.88-.84,1.88-1.88Z"/>
</svg>