<?xml version="1.0" encoding="UTF-8"?>
<svg xmlns="http://www.w3.org/2000/svg" viewBox="0 0 50 50">
    <path fill="hsl(200deg, 20%, 80%)" d="m25,49c-5.27,0-10.32-2.09-14.05-5.82-3.73-3.73-5.82-8.78-5.82-14.05s2.09-10.32,5.82-14.05c3.73-3.73,8.78-5.82,14.05-5.82h6.85c.54,0,1.07.22,1.45.6.39.39.6.91.6,1.45s-.22,1.07-.6,1.45c-.39.39-.91.6-1.45.6h-6.85c-3.12,0-6.16.92-8.75,2.66-2.59,1.73-4.61,4.19-5.8,7.07-1.19,2.88-1.5,6.05-.9,9.1.61,3.06,2.11,5.86,4.31,8.07,2.2,2.2,5.01,3.7,8.07,4.31,3.06.61,6.22.3,9.1-.9,2.88-1.19,5.34-3.21,7.07-5.8,1.73-2.59,2.65-5.64,2.65-8.75,0-.54.22-1.07.6-1.45.39-.39.91-.6,1.45-.6s1.07.22,1.45.6c.39.39.6.91.6,1.45,0,5.27-2.1,10.31-5.83,14.04-3.72,3.72-8.77,5.82-14.04,5.83Z" />
    <path fill="hsl(200deg, 20%, 80%)" d="m25,21.6c-.27,0-.54-.05-.79-.15-.25-.1-.48-.26-.67-.45-.38-.39-.6-.91-.6-1.45s.22-1.07.6-1.45l6.77-6.77-6.77-6.77c-.2-.19-.36-.41-.48-.67-.11-.25-.17-.52-.18-.8,0-.28.05-.55.15-.81.1-.26.26-.49.45-.68.2-.2.43-.35.68-.45.26-.1.53-.15.81-.15.28,0,.55.07.8.18.25.11.48.27.67.48l8.22,8.22c.38.39.6.91.6,1.45s-.22,1.07-.6,1.45l-8.22,8.22c-.19.19-.42.34-.67.45-.25.1-.52.16-.79.15Z" />
</svg>